<?xml version="1.0" encoding="iso-8859-1"?>
<!-- Uploaded to: SVG Repo, www.svgrepo.com, Generator: SVG Repo Mixer Tools -->
<svg height="800px" width="800px" version="1.1" id="Layer_1" xmlns="http://www.w3.org/2000/svg" xmlns:xlink="http://www.w3.org/1999/xlink" 
	 viewBox="0 0 511.999 511.999" xml:space="preserve">
<path style="fill:#CFF09E;" d="M83.277,300.965c0.72-30.124,6.768-59.427,26.096-84.425c20.374-26.352,47.468-40.469,80.841-41.312
	c12.34-0.313,24.18,3.579,35.651,8.127c4.643,1.841,9.405,3.421,13.92,5.53c13.247,6.188,26.059,5.29,39.434-0.327
	c16.705-7.014,33.553-14.094,52.208-14.338c33.224-0.435,61.294,10.642,82.939,36.558c3.554,4.256,3.294,6.465-1.449,9.826
	c-43.323,30.688-53.446,88.317-23.147,130.69c9.162,12.81,21.006,22.597,35.122,29.51c3.486,1.708,4.64,3.302,3.226,7.222
	c-12.115,33.592-30.069,63.639-54.679,89.518c-18.357,19.306-40.278,23.076-64.789,13.269c-10.51-4.205-20.678-9.135-32.145-10.844
	c-16.063-2.393-31.171,0.285-45.929,6.387c-5.034,2.082-10.052,4.217-15.143,6.147c-21.95,8.326-41.057,3.547-57.385-12.908
	c-24.509-24.701-42.723-53.556-55.669-85.761C90.499,364.275,83.849,333.586,83.277,300.965z"/>
<g>
	<path style="fill:#507C5C;" d="M195.032,511.999c-17.675,0-33.815-7.233-47.969-21.498c-25.105-25.3-44.97-55.881-59.043-90.89
		C75.006,367.238,68.392,335.06,67.8,301.236c-0.003-0.214-0.003-0.427,0.002-0.641c0.935-39.139,10.255-68.858,29.325-93.523
		c23.534-30.439,54.722-46.359,92.697-47.319c0.596-0.015,1.192-0.023,1.786-0.023c14.646,0,27.861,4.438,39.961,9.233
		c1.438,0.57,2.889,1.113,4.338,1.656c3.369,1.262,6.85,2.568,10.431,4.24c8.545,3.993,16.521,3.777,26.889-0.574
		c17.902-7.514,36.352-15.261,57.999-15.544c39.294-0.52,71.259,13.659,95.023,42.114c1.732,2.073,7,8.381,5.863,17.13
		c-1.146,8.806-7.996,13.657-10.247,15.252c-17.788,12.6-29.504,30.934-32.99,51.626c-3.389,20.127,1.399,40.521,13.489,57.425
		c7.48,10.46,17.351,18.741,29.336,24.61c10.906,5.339,15.012,15.201,10.982,26.378c-13.077,36.256-32.6,68.198-58.022,94.934
		c-14.705,15.464-31.901,23.306-51.116,23.306c-9.832,0-20.142-2.129-30.644-6.33c-2.033-0.814-4.056-1.653-6.079-2.494
		c-7.802-3.242-15.173-6.305-22.596-7.411c-12.312-1.835-24.471-0.102-37.733,5.383l-3.056,1.268
		c-4.047,1.683-8.231,3.424-12.513,5.048C212.143,510.31,203.431,511.999,195.032,511.999z M98.763,301.016
		c0.56,29.864,6.445,58.343,17.984,87.046c12.524,31.152,30.118,58.281,52.295,80.631c8.242,8.307,16.743,12.344,25.991,12.344
		c4.635,0,9.652-1.012,14.914-3.008c3.822-1.451,7.601-3.022,11.601-4.685l3.116-1.294c13.722-5.674,26.862-8.432,40.167-8.432
		c4.637,0,9.332,0.35,13.961,1.039c11.207,1.67,20.718,5.621,29.914,9.443c1.895,0.788,3.79,1.576,5.699,2.339
		c6.829,2.732,13.269,4.116,19.144,4.116c10.546,0,19.925-4.475,28.677-13.679c20.596-21.658,36.831-47.26,48.339-76.2
		c-13.306-7.779-24.509-17.969-33.381-30.377c-16.914-23.653-23.602-52.268-18.834-80.577c4.335-25.734,17.678-48.774,37.916-65.797
		c-16.496-16.291-37.187-24.234-62.961-24.234c-0.553,0-1.113,0.003-1.669,0.011c-15.622,0.204-30.552,6.473-46.361,13.108
		c-9.366,3.932-18.122,5.833-26.827,5.833c-8.587,0-17.069-1.927-25.209-5.729c-2.482-1.16-5.257-2.2-8.194-3.301
		c-1.632-0.611-3.262-1.225-4.88-1.865c-9.57-3.794-19.761-7.298-29.553-7.042c-28.612,0.725-51.178,12.273-68.986,35.306
		C106.839,245.128,99.573,268.967,98.763,301.016z"/>
	<path style="fill:#507C5C;" d="M250.545,151.001c-0.002,0-0.002,0-0.003,0c-8.55-0.002-15.479-6.934-15.478-15.484
		c0.014-57.425,16.561-88.037,63.239-116.978c13.732-8.513,29.417-14.623,46.619-18.164c5.861-1.212,12.224,0.554,17,4.712
		c4.827,4.198,7.369,10.115,6.974,16.23c-0.087,1.345-0.308,2.534-0.505,3.582c-0.077,0.406-0.138,0.72-0.189,1.023
		c-2.638,25.641-7.134,52.474-21.882,74.528c-4.753,7.109-14.366,9.015-21.474,4.263c-7.107-4.753-9.016-14.366-4.263-21.475
		c8.651-12.937,12.773-28.921,15.404-48.423c-7.7,2.638-14.849,5.993-21.371,10.035c-37.227,23.082-48.581,44.268-48.591,90.67
		C266.025,144.072,259.092,151.001,250.545,151.001z"/>
</g>
</svg>