<?xml version="1.0" encoding="UTF-8"?>
<svg id="Logo" xmlns="http://www.w3.org/2000/svg" viewBox="0 0 1000 1000">
  <defs>
    <style>
      .cls-1 {
        fill: #231f20;
        stroke-width: 0px;
      }
    </style>
  </defs>
  <polygon class="cls-1" points="465 184.99 430 219.99 395 255 360 290 325 325 290 360 220 430 185 465 150 500 220 570 255 535 325.01 465 360 430.01 395 395 430 360 465 325 500 290 535.01 255 570 220 500 150 465 184.99"/>
  <polygon class="cls-1" points="570 360 535 395 500 430 465 465 430 500 465 535 500 570 535 535 570 500 605 465 640 430 709.99 360 675 325 640 290 605 325 570 360"/>
  <polygon class="cls-1" points="710 500 675 535 640 570 605 605 570 640.01 500 710 465 675 430 640 395 605 360 570 325 605 290 640 325.01 675 360 710 430 780 465 815 500 850 535 815.01 570 780 605 745 640 710 710 640 745 605 780 570 815 535 850 500 815 465 780 430.01 745 465 710 500"/>
</svg>